<?xml version="1.0" encoding="UTF-8"?>
<svg xmlns="http://www.w3.org/2000/svg" viewBox="232 80 134 42" width="134" height="42">
  <title>SOVA Logo</title>
  <!-- 3D Extrude -->
  <g id="extrude">
<rect x="241" y="86" width="20" height="1" fill="#143250"/>
<rect x="273" y="86" width="20" height="1" fill="#143250"/>
<rect x="301" y="86" width="8" height="1" fill="#143250"/>
<rect x="321" y="86" width="8" height="1" fill="#143250"/>
<rect x="341" y="86" width="12" height="1" fill="#143250"/>
<rect x="241" y="87" width="20" height="1" fill="#143250"/>
<rect x="273" y="87" width="20" height="1" fill="#143250"/>
<rect x="301" y="87" width="8" height="1" fill="#143250"/>
<rect x="321" y="87" width="8" height="1" fill="#143250"/>
<rect x="341" y="87" width="12" height="1" fill="#143250"/>
<rect x="241" y="88" width="21" height="1" fill="#143250"/>
<rect x="273" y="88" width="21" height="1" fill="#143250"/>
<rect x="301" y="88" width="9" height="1" fill="#143250"/>
<rect x="321" y="88" width="9" height="1" fill="#143250"/>
<rect x="341" y="88" width="13" height="1" fill="#143250"/>
<rect x="241" y="89" width="21" height="1" fill="#143250"/>
<rect x="273" y="89" width="21" height="1" fill="#143250"/>
<rect x="301" y="89" width="9" height="1" fill="#143250"/>
<rect x="321" y="89" width="9" height="1" fill="#143250"/>
<rect x="341" y="89" width="13" height="1" fill="#143250"/>
<rect x="237" y="90" width="28" height="1" fill="#143250"/>
<rect x="269" y="90" width="28" height="1" fill="#143250"/>
<rect x="301" y="90" width="10" height="1" fill="#143250"/>
<rect x="321" y="90" width="10" height="1" fill="#143250"/>
<rect x="337" y="90" width="20" height="1" fill="#143250"/>
<rect x="237" y="91" width="28" height="1" fill="#143250"/>
<rect x="269" y="91" width="28" height="1" fill="#143250"/>
<rect x="301" y="91" width="10" height="1" fill="#143250"/>
<rect x="321" y="91" width="10" height="1" fill="#143250"/>
<rect x="337" y="91" width="20" height="1" fill="#143250"/>
<rect x="237" y="92" width="29" height="1" fill="#143250"/>
<rect x="269" y="92" width="29" height="1" fill="#143250"/>
<rect x="301" y="92" width="11" height="1" fill="#143250"/>
<rect x="321" y="92" width="11" height="1" fill="#143250"/>
<rect x="337" y="92" width="21" height="1" fill="#143250"/>
<rect x="237" y="93" width="29" height="1" fill="#143250"/>
<rect x="269" y="93" width="29" height="1" fill="#143250"/>
<rect x="301" y="93" width="11" height="1" fill="#143250"/>
<rect x="321" y="93" width="11" height="1" fill="#143250"/>
<rect x="337" y="93" width="21" height="1" fill="#143250"/>
<rect x="237" y="94" width="30" height="1" fill="#143250"/>
<rect x="269" y="94" width="30" height="1" fill="#143250"/>
<rect x="301" y="94" width="11" height="1" fill="#143250"/>
<rect x="321" y="94" width="11" height="1" fill="#143250"/>
<rect x="333" y="94" width="28" height="1" fill="#143250"/>
<rect x="237" y="95" width="30" height="1" fill="#143250"/>
<rect x="269" y="95" width="30" height="1" fill="#143250"/>
<rect x="301" y="95" width="11" height="1" fill="#143250"/>
<rect x="321" y="95" width="11" height="1" fill="#143250"/>
<rect x="333" y="95" width="28" height="1" fill="#143250"/>
<rect x="237" y="96" width="11" height="1" fill="#143250"/>
<rect x="259" y="96" width="9" height="1" fill="#143250"/>
<rect x="269" y="96" width="11" height="1" fill="#143250"/>
<rect x="289" y="96" width="11" height="1" fill="#143250"/>
<rect x="301" y="96" width="11" height="1" fill="#143250"/>
<rect x="321" y="96" width="11" height="1" fill="#143250"/>
<rect x="333" y="96" width="15" height="1" fill="#143250"/>
<rect x="351" y="96" width="11" height="1" fill="#143250"/>
<rect x="237" y="97" width="11" height="1" fill="#143250"/>
<rect x="259" y="97" width="9" height="1" fill="#143250"/>
<rect x="269" y="97" width="11" height="1" fill="#143250"/>
<rect x="289" y="97" width="11" height="1" fill="#143250"/>
<rect x="301" y="97" width="11" height="1" fill="#143250"/>
<rect x="321" y="97" width="11" height="1" fill="#143250"/>
<rect x="333" y="97" width="15" height="1" fill="#143250"/>
<rect x="351" y="97" width="11" height="1" fill="#143250"/>
<rect x="238" y="98" width="30" height="1" fill="#143250"/>
<rect x="269" y="98" width="11" height="1" fill="#143250"/>
<rect x="289" y="98" width="11" height="1" fill="#143250"/>
<rect x="301" y="98" width="12" height="1" fill="#143250"/>
<rect x="317" y="98" width="15" height="1" fill="#143250"/>
<rect x="333" y="98" width="15" height="1" fill="#143250"/>
<rect x="352" y="98" width="11" height="1" fill="#143250"/>
<rect x="238" y="99" width="30" height="1" fill="#143250"/>
<rect x="269" y="99" width="11" height="1" fill="#143250"/>
<rect x="289" y="99" width="11" height="1" fill="#143250"/>
<rect x="301" y="99" width="12" height="1" fill="#143250"/>
<rect x="317" y="99" width="15" height="1" fill="#143250"/>
<rect x="333" y="99" width="15" height="1" fill="#143250"/>
<rect x="352" y="99" width="11" height="1" fill="#143250"/>
<rect x="239" y="100" width="23" height="1" fill="#143250"/>
<rect x="269" y="100" width="11" height="1" fill="#143250"/>
<rect x="289" y="100" width="11" height="1" fill="#143250"/>
<rect x="301" y="100" width="13" height="1" fill="#143250"/>
<rect x="317" y="100" width="15" height="1" fill="#143250"/>
<rect x="333" y="100" width="11" height="1" fill="#143250"/>
<rect x="353" y="100" width="11" height="1" fill="#143250"/>
<rect x="239" y="101" width="23" height="1" fill="#143250"/>
<rect x="269" y="101" width="11" height="1" fill="#143250"/>
<rect x="289" y="101" width="11" height="1" fill="#143250"/>
<rect x="301" y="101" width="13" height="1" fill="#143250"/>
<rect x="317" y="101" width="15" height="1" fill="#143250"/>
<rect x="333" y="101" width="11" height="1" fill="#143250"/>
<rect x="353" y="101" width="11" height="1" fill="#143250"/>
<rect x="240" y="102" width="25" height="1" fill="#143250"/>
<rect x="269" y="102" width="11" height="1" fill="#143250"/>
<rect x="289" y="102" width="11" height="1" fill="#143250"/>
<rect x="302" y="102" width="30" height="1" fill="#143250"/>
<rect x="333" y="102" width="31" height="1" fill="#143250"/>
<rect x="240" y="103" width="25" height="1" fill="#143250"/>
<rect x="269" y="103" width="11" height="1" fill="#143250"/>
<rect x="289" y="103" width="11" height="1" fill="#143250"/>
<rect x="302" y="103" width="30" height="1" fill="#143250"/>
<rect x="333" y="103" width="31" height="1" fill="#143250"/>
<rect x="243" y="104" width="23" height="1" fill="#143250"/>
<rect x="269" y="104" width="11" height="1" fill="#143250"/>
<rect x="289" y="104" width="11" height="1" fill="#143250"/>
<rect x="303" y="104" width="29" height="1" fill="#143250"/>
<rect x="333" y="104" width="31" height="1" fill="#143250"/>
<rect x="243" y="105" width="23" height="1" fill="#143250"/>
<rect x="269" y="105" width="11" height="1" fill="#143250"/>
<rect x="289" y="105" width="11" height="1" fill="#143250"/>
<rect x="303" y="105" width="29" height="1" fill="#143250"/>
<rect x="333" y="105" width="31" height="1" fill="#143250"/>
<rect x="237" y="106" width="30" height="1" fill="#143250"/>
<rect x="269" y="106" width="11" height="1" fill="#143250"/>
<rect x="289" y="106" width="11" height="1" fill="#143250"/>
<rect x="304" y="106" width="28" height="1" fill="#143250"/>
<rect x="333" y="106" width="31" height="1" fill="#143250"/>
<rect x="237" y="107" width="30" height="1" fill="#143250"/>
<rect x="269" y="107" width="11" height="1" fill="#143250"/>
<rect x="289" y="107" width="11" height="1" fill="#143250"/>
<rect x="304" y="107" width="28" height="1" fill="#143250"/>
<rect x="333" y="107" width="31" height="1" fill="#143250"/>
<rect x="237" y="108" width="9" height="1" fill="#143250"/>
<rect x="257" y="108" width="11" height="1" fill="#143250"/>
<rect x="269" y="108" width="11" height="1" fill="#143250"/>
<rect x="289" y="108" width="11" height="1" fill="#143250"/>
<rect x="307" y="108" width="21" height="1" fill="#143250"/>
<rect x="333" y="108" width="31" height="1" fill="#143250"/>
<rect x="237" y="109" width="9" height="1" fill="#143250"/>
<rect x="257" y="109" width="11" height="1" fill="#143250"/>
<rect x="269" y="109" width="11" height="1" fill="#143250"/>
<rect x="289" y="109" width="11" height="1" fill="#143250"/>
<rect x="307" y="109" width="21" height="1" fill="#143250"/>
<rect x="333" y="109" width="31" height="1" fill="#143250"/>
<rect x="238" y="110" width="30" height="1" fill="#143250"/>
<rect x="270" y="110" width="30" height="1" fill="#143250"/>
<rect x="308" y="110" width="20" height="1" fill="#143250"/>
<rect x="333" y="110" width="31" height="1" fill="#143250"/>
<rect x="238" y="111" width="30" height="1" fill="#143250"/>
<rect x="270" y="111" width="30" height="1" fill="#143250"/>
<rect x="308" y="111" width="20" height="1" fill="#143250"/>
<rect x="333" y="111" width="31" height="1" fill="#143250"/>
<rect x="239" y="112" width="29" height="1" fill="#143250"/>
<rect x="271" y="112" width="29" height="1" fill="#143250"/>
<rect x="311" y="112" width="13" height="1" fill="#143250"/>
<rect x="333" y="112" width="11" height="1" fill="#143250"/>
<rect x="353" y="112" width="11" height="1" fill="#143250"/>
<rect x="239" y="113" width="29" height="1" fill="#143250"/>
<rect x="271" y="113" width="29" height="1" fill="#143250"/>
<rect x="311" y="113" width="13" height="1" fill="#143250"/>
<rect x="333" y="113" width="11" height="1" fill="#143250"/>
<rect x="353" y="113" width="11" height="1" fill="#143250"/>
<rect x="240" y="114" width="28" height="1" fill="#143250"/>
<rect x="272" y="114" width="28" height="1" fill="#143250"/>
<rect x="312" y="114" width="12" height="1" fill="#143250"/>
<rect x="334" y="114" width="10" height="1" fill="#143250"/>
<rect x="354" y="114" width="10" height="1" fill="#143250"/>
<rect x="240" y="115" width="28" height="1" fill="#143250"/>
<rect x="272" y="115" width="28" height="1" fill="#143250"/>
<rect x="312" y="115" width="12" height="1" fill="#143250"/>
<rect x="334" y="115" width="10" height="1" fill="#143250"/>
<rect x="354" y="115" width="10" height="1" fill="#143250"/>
<rect x="243" y="116" width="21" height="1" fill="#143250"/>
<rect x="275" y="116" width="21" height="1" fill="#143250"/>
<rect x="315" y="116" width="5" height="1" fill="#143250"/>
<rect x="335" y="116" width="9" height="1" fill="#143250"/>
<rect x="355" y="116" width="9" height="1" fill="#143250"/>
<rect x="243" y="117" width="21" height="1" fill="#143250"/>
<rect x="275" y="117" width="21" height="1" fill="#143250"/>
<rect x="315" y="117" width="5" height="1" fill="#143250"/>
<rect x="335" y="117" width="9" height="1" fill="#143250"/>
<rect x="355" y="117" width="9" height="1" fill="#143250"/>
<rect x="244" y="118" width="20" height="1" fill="#143250"/>
<rect x="276" y="118" width="20" height="1" fill="#143250"/>
<rect x="316" y="118" width="4" height="1" fill="#143250"/>
<rect x="336" y="118" width="8" height="1" fill="#143250"/>
<rect x="356" y="118" width="8" height="1" fill="#143250"/>
<rect x="244" y="119" width="20" height="1" fill="#143250"/>
<rect x="276" y="119" width="20" height="1" fill="#143250"/>
<rect x="316" y="119" width="4" height="1" fill="#143250"/>
<rect x="336" y="119" width="8" height="1" fill="#143250"/>
<rect x="356" y="119" width="8" height="1" fill="#143250"/>
  </g>
  <!-- Outline -->
  <g id="outline">
<rect x="240" y="82" width="20" height="1" fill="#14283c"/>
<rect x="272" y="82" width="20" height="1" fill="#14283c"/>
<rect x="300" y="82" width="8" height="1" fill="#14283c"/>
<rect x="320" y="82" width="8" height="1" fill="#14283c"/>
<rect x="340" y="82" width="12" height="1" fill="#14283c"/>
<rect x="239" y="83" width="22" height="1" fill="#14283c"/>
<rect x="271" y="83" width="22" height="1" fill="#14283c"/>
<rect x="299" y="83" width="10" height="1" fill="#14283c"/>
<rect x="319" y="83" width="10" height="1" fill="#14283c"/>
<rect x="339" y="83" width="14" height="1" fill="#14283c"/>
<rect x="238" y="84" width="24" height="1" fill="#14283c"/>
<rect x="270" y="84" width="24" height="1" fill="#14283c"/>
<rect x="298" y="84" width="12" height="1" fill="#14283c"/>
<rect x="318" y="84" width="12" height="1" fill="#14283c"/>
<rect x="338" y="84" width="16" height="1" fill="#14283c"/>
<rect x="238" y="85" width="24" height="1" fill="#14283c"/>
<rect x="270" y="85" width="24" height="1" fill="#14283c"/>
<rect x="298" y="85" width="12" height="1" fill="#14283c"/>
<rect x="318" y="85" width="12" height="1" fill="#14283c"/>
<rect x="338" y="85" width="16" height="1" fill="#14283c"/>
<rect x="236" y="86" width="28" height="1" fill="#14283c"/>
<rect x="268" y="86" width="28" height="1" fill="#14283c"/>
<rect x="298" y="86" width="12" height="1" fill="#14283c"/>
<rect x="318" y="86" width="12" height="1" fill="#14283c"/>
<rect x="336" y="86" width="20" height="1" fill="#14283c"/>
<rect x="235" y="87" width="30" height="1" fill="#14283c"/>
<rect x="267" y="87" width="30" height="1" fill="#14283c"/>
<rect x="298" y="87" width="12" height="1" fill="#14283c"/>
<rect x="318" y="87" width="12" height="1" fill="#14283c"/>
<rect x="335" y="87" width="22" height="1" fill="#14283c"/>
<rect x="234" y="88" width="76" height="1" fill="#14283c"/>
<rect x="318" y="88" width="12" height="1" fill="#14283c"/>
<rect x="334" y="88" width="24" height="1" fill="#14283c"/>
<rect x="234" y="89" width="76" height="1" fill="#14283c"/>
<rect x="318" y="89" width="12" height="1" fill="#14283c"/>
<rect x="334" y="89" width="24" height="1" fill="#14283c"/>
<rect x="234" y="90" width="12" height="1" fill="#14283c"/>
<rect x="254" y="90" width="24" height="1" fill="#14283c"/>
<rect x="286" y="90" width="24" height="1" fill="#14283c"/>
<rect x="318" y="90" width="12" height="1" fill="#14283c"/>
<rect x="332" y="90" width="28" height="1" fill="#14283c"/>
<rect x="234" y="91" width="12" height="1" fill="#14283c"/>
<rect x="254" y="91" width="24" height="1" fill="#14283c"/>
<rect x="286" y="91" width="24" height="1" fill="#14283c"/>
<rect x="318" y="91" width="12" height="1" fill="#14283c"/>
<rect x="331" y="91" width="30" height="1" fill="#14283c"/>
<rect x="234" y="92" width="12" height="1" fill="#14283c"/>
<rect x="255" y="92" width="10" height="1" fill="#14283c"/>
<rect x="266" y="92" width="12" height="1" fill="#14283c"/>
<rect x="286" y="92" width="24" height="1" fill="#14283c"/>
<rect x="318" y="92" width="27" height="1" fill="#14283c"/>
<rect x="347" y="92" width="15" height="1" fill="#14283c"/>
<rect x="234" y="93" width="12" height="1" fill="#14283c"/>
<rect x="256" y="93" width="8" height="1" fill="#14283c"/>
<rect x="266" y="93" width="12" height="1" fill="#14283c"/>
<rect x="286" y="93" width="24" height="1" fill="#14283c"/>
<rect x="318" y="93" width="26" height="1" fill="#14283c"/>
<rect x="348" y="93" width="14" height="1" fill="#14283c"/>
<rect x="234" y="94" width="26" height="1" fill="#14283c"/>
<rect x="266" y="94" width="12" height="1" fill="#14283c"/>
<rect x="286" y="94" width="26" height="1" fill="#14283c"/>
<rect x="316" y="94" width="26" height="1" fill="#14283c"/>
<rect x="350" y="94" width="12" height="1" fill="#14283c"/>
<rect x="234" y="95" width="27" height="1" fill="#14283c"/>
<rect x="266" y="95" width="12" height="1" fill="#14283c"/>
<rect x="286" y="95" width="27" height="1" fill="#14283c"/>
<rect x="315" y="95" width="27" height="1" fill="#14283c"/>
<rect x="350" y="95" width="12" height="1" fill="#14283c"/>
<rect x="235" y="96" width="27" height="1" fill="#14283c"/>
<rect x="266" y="96" width="12" height="1" fill="#14283c"/>
<rect x="286" y="96" width="56" height="1" fill="#14283c"/>
<rect x="350" y="96" width="12" height="1" fill="#14283c"/>
<rect x="236" y="97" width="26" height="1" fill="#14283c"/>
<rect x="266" y="97" width="12" height="1" fill="#14283c"/>
<rect x="286" y="97" width="56" height="1" fill="#14283c"/>
<rect x="350" y="97" width="12" height="1" fill="#14283c"/>
<rect x="238" y="98" width="26" height="1" fill="#14283c"/>
<rect x="266" y="98" width="12" height="1" fill="#14283c"/>
<rect x="286" y="98" width="76" height="1" fill="#14283c"/>
<rect x="238" y="99" width="27" height="1" fill="#14283c"/>
<rect x="266" y="99" width="12" height="1" fill="#14283c"/>
<rect x="286" y="99" width="76" height="1" fill="#14283c"/>
<rect x="239" y="100" width="39" height="1" fill="#14283c"/>
<rect x="286" y="100" width="12" height="1" fill="#14283c"/>
<rect x="299" y="100" width="30" height="1" fill="#14283c"/>
<rect x="330" y="100" width="32" height="1" fill="#14283c"/>
<rect x="240" y="101" width="38" height="1" fill="#14283c"/>
<rect x="286" y="101" width="12" height="1" fill="#14283c"/>
<rect x="300" y="101" width="28" height="1" fill="#14283c"/>
<rect x="330" y="101" width="32" height="1" fill="#14283c"/>
<rect x="236" y="102" width="8" height="1" fill="#14283c"/>
<rect x="254" y="102" width="24" height="1" fill="#14283c"/>
<rect x="286" y="102" width="12" height="1" fill="#14283c"/>
<rect x="302" y="102" width="24" height="1" fill="#14283c"/>
<rect x="330" y="102" width="32" height="1" fill="#14283c"/>
<rect x="235" y="103" width="10" height="1" fill="#14283c"/>
<rect x="254" y="103" width="24" height="1" fill="#14283c"/>
<rect x="286" y="103" width="12" height="1" fill="#14283c"/>
<rect x="302" y="103" width="24" height="1" fill="#14283c"/>
<rect x="330" y="103" width="32" height="1" fill="#14283c"/>
<rect x="234" y="104" width="12" height="1" fill="#14283c"/>
<rect x="254" y="104" width="24" height="1" fill="#14283c"/>
<rect x="286" y="104" width="12" height="1" fill="#14283c"/>
<rect x="303" y="104" width="22" height="1" fill="#14283c"/>
<rect x="330" y="104" width="32" height="1" fill="#14283c"/>
<rect x="234" y="105" width="12" height="1" fill="#14283c"/>
<rect x="254" y="105" width="24" height="1" fill="#14283c"/>
<rect x="286" y="105" width="12" height="1" fill="#14283c"/>
<rect x="304" y="105" width="20" height="1" fill="#14283c"/>
<rect x="330" y="105" width="32" height="1" fill="#14283c"/>
<rect x="234" y="106" width="64" height="1" fill="#14283c"/>
<rect x="306" y="106" width="16" height="1" fill="#14283c"/>
<rect x="330" y="106" width="12" height="1" fill="#14283c"/>
<rect x="350" y="106" width="12" height="1" fill="#14283c"/>
<rect x="234" y="107" width="64" height="1" fill="#14283c"/>
<rect x="306" y="107" width="16" height="1" fill="#14283c"/>
<rect x="330" y="107" width="12" height="1" fill="#14283c"/>
<rect x="350" y="107" width="12" height="1" fill="#14283c"/>
<rect x="235" y="108" width="30" height="1" fill="#14283c"/>
<rect x="267" y="108" width="30" height="1" fill="#14283c"/>
<rect x="307" y="108" width="14" height="1" fill="#14283c"/>
<rect x="330" y="108" width="12" height="1" fill="#14283c"/>
<rect x="350" y="108" width="12" height="1" fill="#14283c"/>
<rect x="236" y="109" width="28" height="1" fill="#14283c"/>
<rect x="268" y="109" width="28" height="1" fill="#14283c"/>
<rect x="308" y="109" width="12" height="1" fill="#14283c"/>
<rect x="330" y="109" width="12" height="1" fill="#14283c"/>
<rect x="350" y="109" width="12" height="1" fill="#14283c"/>
<rect x="238" y="110" width="24" height="1" fill="#14283c"/>
<rect x="270" y="110" width="24" height="1" fill="#14283c"/>
<rect x="310" y="110" width="8" height="1" fill="#14283c"/>
<rect x="330" y="110" width="12" height="1" fill="#14283c"/>
<rect x="350" y="110" width="12" height="1" fill="#14283c"/>
<rect x="238" y="111" width="24" height="1" fill="#14283c"/>
<rect x="270" y="111" width="24" height="1" fill="#14283c"/>
<rect x="310" y="111" width="8" height="1" fill="#14283c"/>
<rect x="330" y="111" width="12" height="1" fill="#14283c"/>
<rect x="350" y="111" width="12" height="1" fill="#14283c"/>
<rect x="239" y="112" width="22" height="1" fill="#14283c"/>
<rect x="271" y="112" width="22" height="1" fill="#14283c"/>
<rect x="311" y="112" width="6" height="1" fill="#14283c"/>
<rect x="331" y="112" width="10" height="1" fill="#14283c"/>
<rect x="351" y="112" width="10" height="1" fill="#14283c"/>
<rect x="240" y="113" width="20" height="1" fill="#14283c"/>
<rect x="272" y="113" width="20" height="1" fill="#14283c"/>
<rect x="312" y="113" width="4" height="1" fill="#14283c"/>
<rect x="332" y="113" width="8" height="1" fill="#14283c"/>
<rect x="352" y="113" width="8" height="1" fill="#14283c"/>
  </g>
  <!-- Highlight -->
  <g id="highlight">
<rect x="240" y="84" width="20" height="1" fill="#b4f0ff"/>
<rect x="272" y="84" width="20" height="1" fill="#b4f0ff"/>
<rect x="300" y="84" width="8" height="1" fill="#b4f0ff"/>
<rect x="320" y="84" width="8" height="1" fill="#b4f0ff"/>
<rect x="340" y="84" width="12" height="1" fill="#b4f0ff"/>
<rect x="240" y="85" width="20" height="1" fill="#b4f0ff"/>
<rect x="272" y="85" width="20" height="1" fill="#b4f0ff"/>
<rect x="300" y="85" width="8" height="1" fill="#b4f0ff"/>
<rect x="320" y="85" width="8" height="1" fill="#b4f0ff"/>
<rect x="340" y="85" width="12" height="1" fill="#b4f0ff"/>
<rect x="240" y="86" width="4" height="1" fill="#b4f0ff"/>
<rect x="256" y="86" width="4" height="1" fill="#b4f0ff"/>
<rect x="272" y="86" width="4" height="1" fill="#b4f0ff"/>
<rect x="288" y="86" width="4" height="1" fill="#b4f0ff"/>
<rect x="300" y="86" width="8" height="1" fill="#b4f0ff"/>
<rect x="320" y="86" width="8" height="1" fill="#b4f0ff"/>
<rect x="340" y="86" width="4" height="1" fill="#b4f0ff"/>
<rect x="348" y="86" width="4" height="1" fill="#b4f0ff"/>
<rect x="240" y="87" width="4" height="1" fill="#b4f0ff"/>
<rect x="256" y="87" width="4" height="1" fill="#b4f0ff"/>
<rect x="272" y="87" width="4" height="1" fill="#b4f0ff"/>
<rect x="288" y="87" width="4" height="1" fill="#b4f0ff"/>
<rect x="300" y="87" width="8" height="1" fill="#b4f0ff"/>
<rect x="320" y="87" width="8" height="1" fill="#b4f0ff"/>
<rect x="340" y="87" width="4" height="1" fill="#b4f0ff"/>
<rect x="348" y="87" width="4" height="1" fill="#b4f0ff"/>
<rect x="236" y="88" width="8" height="1" fill="#b4f0ff"/>
<rect x="256" y="88" width="8" height="1" fill="#b4f0ff"/>
<rect x="268" y="88" width="8" height="1" fill="#b4f0ff"/>
<rect x="288" y="88" width="8" height="1" fill="#b4f0ff"/>
<rect x="300" y="88" width="8" height="1" fill="#b4f0ff"/>
<rect x="320" y="88" width="8" height="1" fill="#b4f0ff"/>
<rect x="336" y="88" width="8" height="1" fill="#b4f0ff"/>
<rect x="348" y="88" width="8" height="1" fill="#b4f0ff"/>
<rect x="236" y="89" width="8" height="1" fill="#b4f0ff"/>
<rect x="256" y="89" width="8" height="1" fill="#b4f0ff"/>
<rect x="268" y="89" width="8" height="1" fill="#b4f0ff"/>
<rect x="288" y="89" width="8" height="1" fill="#b4f0ff"/>
<rect x="300" y="89" width="8" height="1" fill="#b4f0ff"/>
<rect x="320" y="89" width="8" height="1" fill="#b4f0ff"/>
<rect x="336" y="89" width="8" height="1" fill="#b4f0ff"/>
<rect x="348" y="89" width="8" height="1" fill="#b4f0ff"/>
<rect x="236" y="90" width="8" height="1" fill="#b4f0ff"/>
<rect x="268" y="90" width="8" height="1" fill="#b4f0ff"/>
<rect x="288" y="90" width="8" height="1" fill="#b4f0ff"/>
<rect x="300" y="90" width="8" height="1" fill="#b4f0ff"/>
<rect x="320" y="90" width="8" height="1" fill="#b4f0ff"/>
<rect x="336" y="90" width="4" height="1" fill="#b4f0ff"/>
<rect x="352" y="90" width="4" height="1" fill="#b4f0ff"/>
<rect x="236" y="91" width="8" height="1" fill="#b4f0ff"/>
<rect x="268" y="91" width="8" height="1" fill="#b4f0ff"/>
<rect x="288" y="91" width="8" height="1" fill="#b4f0ff"/>
<rect x="300" y="91" width="8" height="1" fill="#b4f0ff"/>
<rect x="320" y="91" width="8" height="1" fill="#b4f0ff"/>
<rect x="336" y="91" width="4" height="1" fill="#b4f0ff"/>
<rect x="352" y="91" width="4" height="1" fill="#b4f0ff"/>
<rect x="236" y="92" width="8" height="1" fill="#b4f0ff"/>
<rect x="268" y="92" width="8" height="1" fill="#b4f0ff"/>
<rect x="288" y="92" width="8" height="1" fill="#b4f0ff"/>
<rect x="300" y="92" width="8" height="1" fill="#b4f0ff"/>
<rect x="320" y="92" width="8" height="1" fill="#b4f0ff"/>
<rect x="332" y="92" width="8" height="1" fill="#b4f0ff"/>
<rect x="352" y="92" width="8" height="1" fill="#b4f0ff"/>
<rect x="236" y="93" width="8" height="1" fill="#b4f0ff"/>
<rect x="268" y="93" width="8" height="1" fill="#b4f0ff"/>
<rect x="288" y="93" width="8" height="1" fill="#b4f0ff"/>
<rect x="300" y="93" width="8" height="1" fill="#b4f0ff"/>
<rect x="320" y="93" width="8" height="1" fill="#b4f0ff"/>
<rect x="332" y="93" width="8" height="1" fill="#b4f0ff"/>
<rect x="352" y="93" width="8" height="1" fill="#b4f0ff"/>
<rect x="240" y="94" width="4" height="1" fill="#b4f0ff"/>
<rect x="268" y="94" width="8" height="1" fill="#b4f0ff"/>
<rect x="288" y="94" width="8" height="1" fill="#b4f0ff"/>
<rect x="300" y="94" width="8" height="1" fill="#b4f0ff"/>
<rect x="320" y="94" width="8" height="1" fill="#b4f0ff"/>
<rect x="332" y="94" width="8" height="1" fill="#b4f0ff"/>
<rect x="352" y="94" width="8" height="1" fill="#b4f0ff"/>
<rect x="240" y="95" width="4" height="1" fill="#b4f0ff"/>
<rect x="268" y="95" width="8" height="1" fill="#b4f0ff"/>
<rect x="288" y="95" width="8" height="1" fill="#b4f0ff"/>
<rect x="300" y="95" width="8" height="1" fill="#b4f0ff"/>
<rect x="320" y="95" width="8" height="1" fill="#b4f0ff"/>
<rect x="332" y="95" width="8" height="1" fill="#b4f0ff"/>
<rect x="352" y="95" width="8" height="1" fill="#b4f0ff"/>
<rect x="240" y="96" width="20" height="1" fill="#b4f0ff"/>
<rect x="268" y="96" width="8" height="1" fill="#b4f0ff"/>
<rect x="288" y="96" width="8" height="1" fill="#b4f0ff"/>
<rect x="300" y="96" width="12" height="1" fill="#b4f0ff"/>
<rect x="316" y="96" width="12" height="1" fill="#b4f0ff"/>
<rect x="332" y="96" width="8" height="1" fill="#b4f0ff"/>
<rect x="352" y="96" width="8" height="1" fill="#b4f0ff"/>
<rect x="240" y="97" width="20" height="1" fill="#b4f0ff"/>
<rect x="268" y="97" width="8" height="1" fill="#b4f0ff"/>
<rect x="288" y="97" width="8" height="1" fill="#b4f0ff"/>
<rect x="300" y="97" width="12" height="1" fill="#b4f0ff"/>
<rect x="316" y="97" width="12" height="1" fill="#b4f0ff"/>
<rect x="332" y="97" width="8" height="1" fill="#b4f0ff"/>
<rect x="352" y="97" width="8" height="1" fill="#b4f0ff"/>
<rect x="256" y="98" width="4" height="1" fill="#b4f0ff"/>
<rect x="268" y="98" width="8" height="1" fill="#b4f0ff"/>
<rect x="288" y="98" width="8" height="1" fill="#b4f0ff"/>
<rect x="304" y="98" width="8" height="1" fill="#b4f0ff"/>
<rect x="316" y="98" width="8" height="1" fill="#b4f0ff"/>
<rect x="332" y="98" width="8" height="1" fill="#b4f0ff"/>
<rect x="352" y="98" width="8" height="1" fill="#b4f0ff"/>
<rect x="256" y="99" width="4" height="1" fill="#b4f0ff"/>
<rect x="268" y="99" width="8" height="1" fill="#b4f0ff"/>
<rect x="288" y="99" width="8" height="1" fill="#b4f0ff"/>
<rect x="304" y="99" width="8" height="1" fill="#b4f0ff"/>
<rect x="316" y="99" width="8" height="1" fill="#b4f0ff"/>
<rect x="332" y="99" width="8" height="1" fill="#b4f0ff"/>
<rect x="352" y="99" width="8" height="1" fill="#b4f0ff"/>
<rect x="256" y="100" width="8" height="1" fill="#b4f0ff"/>
<rect x="268" y="100" width="8" height="1" fill="#b4f0ff"/>
<rect x="288" y="100" width="8" height="1" fill="#b4f0ff"/>
<rect x="304" y="100" width="20" height="1" fill="#b4f0ff"/>
<rect x="332" y="100" width="28" height="1" fill="#b4f0ff"/>
<rect x="256" y="101" width="8" height="1" fill="#b4f0ff"/>
<rect x="268" y="101" width="8" height="1" fill="#b4f0ff"/>
<rect x="288" y="101" width="8" height="1" fill="#b4f0ff"/>
<rect x="304" y="101" width="20" height="1" fill="#b4f0ff"/>
<rect x="332" y="101" width="28" height="1" fill="#b4f0ff"/>
<rect x="256" y="102" width="8" height="1" fill="#b4f0ff"/>
<rect x="268" y="102" width="8" height="1" fill="#b4f0ff"/>
<rect x="288" y="102" width="8" height="1" fill="#b4f0ff"/>
<rect x="308" y="102" width="12" height="1" fill="#b4f0ff"/>
<rect x="332" y="102" width="8" height="1" fill="#b4f0ff"/>
<rect x="352" y="102" width="8" height="1" fill="#b4f0ff"/>
<rect x="256" y="103" width="8" height="1" fill="#b4f0ff"/>
<rect x="268" y="103" width="8" height="1" fill="#b4f0ff"/>
<rect x="288" y="103" width="8" height="1" fill="#b4f0ff"/>
<rect x="308" y="103" width="12" height="1" fill="#b4f0ff"/>
<rect x="332" y="103" width="8" height="1" fill="#b4f0ff"/>
<rect x="352" y="103" width="8" height="1" fill="#b4f0ff"/>
<rect x="236" y="104" width="8" height="1" fill="#b4f0ff"/>
<rect x="256" y="104" width="8" height="1" fill="#b4f0ff"/>
<rect x="268" y="104" width="8" height="1" fill="#b4f0ff"/>
<rect x="288" y="104" width="8" height="1" fill="#b4f0ff"/>
<rect x="308" y="104" width="12" height="1" fill="#b4f0ff"/>
<rect x="332" y="104" width="8" height="1" fill="#b4f0ff"/>
<rect x="352" y="104" width="8" height="1" fill="#b4f0ff"/>
<rect x="236" y="105" width="8" height="1" fill="#b4f0ff"/>
<rect x="256" y="105" width="8" height="1" fill="#b4f0ff"/>
<rect x="268" y="105" width="8" height="1" fill="#b4f0ff"/>
<rect x="288" y="105" width="8" height="1" fill="#b4f0ff"/>
<rect x="308" y="105" width="12" height="1" fill="#b4f0ff"/>
<rect x="332" y="105" width="8" height="1" fill="#b4f0ff"/>
<rect x="352" y="105" width="8" height="1" fill="#b4f0ff"/>
<rect x="240" y="106" width="4" height="1" fill="#b4f0ff"/>
<rect x="256" y="106" width="4" height="1" fill="#b4f0ff"/>
<rect x="272" y="106" width="4" height="1" fill="#b4f0ff"/>
<rect x="288" y="106" width="4" height="1" fill="#b4f0ff"/>
<rect x="312" y="106" width="4" height="1" fill="#b4f0ff"/>
<rect x="332" y="106" width="8" height="1" fill="#b4f0ff"/>
<rect x="352" y="106" width="8" height="1" fill="#b4f0ff"/>
<rect x="240" y="107" width="4" height="1" fill="#b4f0ff"/>
<rect x="256" y="107" width="4" height="1" fill="#b4f0ff"/>
<rect x="272" y="107" width="4" height="1" fill="#b4f0ff"/>
<rect x="288" y="107" width="4" height="1" fill="#b4f0ff"/>
<rect x="312" y="107" width="4" height="1" fill="#b4f0ff"/>
<rect x="332" y="107" width="8" height="1" fill="#b4f0ff"/>
<rect x="352" y="107" width="8" height="1" fill="#b4f0ff"/>
<rect x="240" y="108" width="20" height="1" fill="#b4f0ff"/>
<rect x="272" y="108" width="20" height="1" fill="#b4f0ff"/>
<rect x="312" y="108" width="4" height="1" fill="#b4f0ff"/>
<rect x="332" y="108" width="8" height="1" fill="#b4f0ff"/>
<rect x="352" y="108" width="8" height="1" fill="#b4f0ff"/>
<rect x="240" y="109" width="20" height="1" fill="#b4f0ff"/>
<rect x="272" y="109" width="20" height="1" fill="#b4f0ff"/>
<rect x="312" y="109" width="4" height="1" fill="#b4f0ff"/>
<rect x="332" y="109" width="8" height="1" fill="#b4f0ff"/>
<rect x="352" y="109" width="8" height="1" fill="#b4f0ff"/>
  </g>
  <!-- Fill -->
  <g id="fill">
<rect x="240" y="84" width="20" height="1" fill="#3cc8f0"/>
<rect x="272" y="84" width="20" height="1" fill="#3cc8f0"/>
<rect x="300" y="84" width="8" height="1" fill="#3cc8f0"/>
<rect x="320" y="84" width="8" height="1" fill="#3cc8f0"/>
<rect x="340" y="84" width="12" height="1" fill="#3cc8f0"/>
<rect x="240" y="85" width="20" height="1" fill="#3cc8f0"/>
<rect x="272" y="85" width="20" height="1" fill="#3cc8f0"/>
<rect x="300" y="85" width="8" height="1" fill="#3cc8f0"/>
<rect x="320" y="85" width="8" height="1" fill="#3cc8f0"/>
<rect x="340" y="85" width="12" height="1" fill="#3cc8f0"/>
<rect x="240" y="86" width="20" height="1" fill="#3cc8f0"/>
<rect x="272" y="86" width="20" height="1" fill="#3cc8f0"/>
<rect x="300" y="86" width="8" height="1" fill="#3cc8f0"/>
<rect x="320" y="86" width="8" height="1" fill="#3cc8f0"/>
<rect x="340" y="86" width="12" height="1" fill="#3cc8f0"/>
<rect x="240" y="87" width="20" height="1" fill="#3cc8f0"/>
<rect x="272" y="87" width="20" height="1" fill="#3cc8f0"/>
<rect x="300" y="87" width="8" height="1" fill="#3cc8f0"/>
<rect x="320" y="87" width="8" height="1" fill="#3cc8f0"/>
<rect x="340" y="87" width="12" height="1" fill="#3cc8f0"/>
<rect x="236" y="88" width="8" height="1" fill="#3cc8f0"/>
<rect x="256" y="88" width="8" height="1" fill="#3cc8f0"/>
<rect x="268" y="88" width="8" height="1" fill="#3cc8f0"/>
<rect x="288" y="88" width="8" height="1" fill="#3cc8f0"/>
<rect x="300" y="88" width="8" height="1" fill="#3cc8f0"/>
<rect x="320" y="88" width="8" height="1" fill="#3cc8f0"/>
<rect x="336" y="88" width="8" height="1" fill="#3cc8f0"/>
<rect x="348" y="88" width="8" height="1" fill="#3cc8f0"/>
<rect x="236" y="89" width="8" height="1" fill="#3cc8f0"/>
<rect x="256" y="89" width="8" height="1" fill="#3cc8f0"/>
<rect x="268" y="89" width="8" height="1" fill="#3cc8f0"/>
<rect x="288" y="89" width="8" height="1" fill="#3cc8f0"/>
<rect x="300" y="89" width="8" height="1" fill="#3cc8f0"/>
<rect x="320" y="89" width="8" height="1" fill="#3cc8f0"/>
<rect x="336" y="89" width="8" height="1" fill="#3cc8f0"/>
<rect x="348" y="89" width="8" height="1" fill="#3cc8f0"/>
<rect x="236" y="90" width="8" height="1" fill="#3cc8f0"/>
<rect x="256" y="90" width="8" height="1" fill="#3cc8f0"/>
<rect x="268" y="90" width="8" height="1" fill="#3cc8f0"/>
<rect x="288" y="90" width="8" height="1" fill="#3cc8f0"/>
<rect x="300" y="90" width="8" height="1" fill="#3cc8f0"/>
<rect x="320" y="90" width="8" height="1" fill="#3cc8f0"/>
<rect x="336" y="90" width="8" height="1" fill="#3cc8f0"/>
<rect x="348" y="90" width="8" height="1" fill="#3cc8f0"/>
<rect x="236" y="91" width="8" height="1" fill="#3cc8f0"/>
<rect x="256" y="91" width="8" height="1" fill="#3cc8f0"/>
<rect x="268" y="91" width="8" height="1" fill="#3cc8f0"/>
<rect x="288" y="91" width="8" height="1" fill="#3cc8f0"/>
<rect x="300" y="91" width="8" height="1" fill="#3cc8f0"/>
<rect x="320" y="91" width="8" height="1" fill="#3cc8f0"/>
<rect x="336" y="91" width="8" height="1" fill="#3cc8f0"/>
<rect x="348" y="91" width="8" height="1" fill="#3cc8f0"/>
<rect x="236" y="92" width="8" height="1" fill="#3cc8f0"/>
<rect x="268" y="92" width="8" height="1" fill="#3cc8f0"/>
<rect x="288" y="92" width="8" height="1" fill="#3cc8f0"/>
<rect x="300" y="92" width="8" height="1" fill="#3cc8f0"/>
<rect x="320" y="92" width="8" height="1" fill="#3cc8f0"/>
<rect x="332" y="92" width="8" height="1" fill="#3cc8f0"/>
<rect x="352" y="92" width="8" height="1" fill="#3cc8f0"/>
<rect x="236" y="93" width="8" height="1" fill="#3cc8f0"/>
<rect x="268" y="93" width="8" height="1" fill="#3cc8f0"/>
<rect x="288" y="93" width="8" height="1" fill="#3cc8f0"/>
<rect x="300" y="93" width="8" height="1" fill="#3cc8f0"/>
<rect x="320" y="93" width="8" height="1" fill="#3cc8f0"/>
<rect x="332" y="93" width="8" height="1" fill="#3cc8f0"/>
<rect x="352" y="93" width="8" height="1" fill="#3cc8f0"/>
<rect x="236" y="94" width="8" height="1" fill="#3cc8f0"/>
<rect x="268" y="94" width="8" height="1" fill="#3cc8f0"/>
<rect x="288" y="94" width="8" height="1" fill="#3cc8f0"/>
<rect x="300" y="94" width="8" height="1" fill="#3cc8f0"/>
<rect x="320" y="94" width="8" height="1" fill="#3cc8f0"/>
<rect x="332" y="94" width="8" height="1" fill="#3cc8f0"/>
<rect x="352" y="94" width="8" height="1" fill="#3cc8f0"/>
<rect x="236" y="95" width="8" height="1" fill="#3cc8f0"/>
<rect x="268" y="95" width="8" height="1" fill="#3cc8f0"/>
<rect x="288" y="95" width="8" height="1" fill="#3cc8f0"/>
<rect x="300" y="95" width="8" height="1" fill="#3cc8f0"/>
<rect x="320" y="95" width="8" height="1" fill="#3cc8f0"/>
<rect x="332" y="95" width="8" height="1" fill="#3cc8f0"/>
<rect x="352" y="95" width="8" height="1" fill="#3cc8f0"/>
<rect x="240" y="96" width="20" height="1" fill="#3cc8f0"/>
<rect x="268" y="96" width="8" height="1" fill="#3cc8f0"/>
<rect x="288" y="96" width="8" height="1" fill="#3cc8f0"/>
<rect x="300" y="96" width="12" height="1" fill="#3cc8f0"/>
<rect x="316" y="96" width="12" height="1" fill="#3cc8f0"/>
<rect x="332" y="96" width="8" height="1" fill="#3cc8f0"/>
<rect x="352" y="96" width="8" height="1" fill="#3cc8f0"/>
<rect x="240" y="97" width="20" height="1" fill="#3cc8f0"/>
<rect x="268" y="97" width="8" height="1" fill="#3cc8f0"/>
<rect x="288" y="97" width="8" height="1" fill="#3cc8f0"/>
<rect x="300" y="97" width="12" height="1" fill="#3cc8f0"/>
<rect x="316" y="97" width="12" height="1" fill="#3cc8f0"/>
<rect x="332" y="97" width="8" height="1" fill="#3cc8f0"/>
<rect x="352" y="97" width="8" height="1" fill="#3cc8f0"/>
<rect x="240" y="98" width="20" height="1" fill="#3cc8f0"/>
<rect x="268" y="98" width="8" height="1" fill="#3cc8f0"/>
<rect x="288" y="98" width="8" height="1" fill="#3cc8f0"/>
<rect x="300" y="98" width="12" height="1" fill="#3cc8f0"/>
<rect x="316" y="98" width="12" height="1" fill="#3cc8f0"/>
<rect x="332" y="98" width="8" height="1" fill="#3cc8f0"/>
<rect x="352" y="98" width="8" height="1" fill="#3cc8f0"/>
<rect x="240" y="99" width="20" height="1" fill="#3cc8f0"/>
<rect x="268" y="99" width="8" height="1" fill="#3cc8f0"/>
<rect x="288" y="99" width="8" height="1" fill="#3cc8f0"/>
<rect x="300" y="99" width="12" height="1" fill="#3cc8f0"/>
<rect x="316" y="99" width="12" height="1" fill="#3cc8f0"/>
<rect x="332" y="99" width="8" height="1" fill="#3cc8f0"/>
<rect x="352" y="99" width="8" height="1" fill="#3cc8f0"/>
<rect x="256" y="100" width="8" height="1" fill="#3cc8f0"/>
<rect x="268" y="100" width="8" height="1" fill="#3cc8f0"/>
<rect x="288" y="100" width="8" height="1" fill="#3cc8f0"/>
<rect x="304" y="100" width="20" height="1" fill="#3cc8f0"/>
<rect x="332" y="100" width="28" height="1" fill="#3cc8f0"/>
<rect x="256" y="101" width="8" height="1" fill="#3cc8f0"/>
<rect x="268" y="101" width="8" height="1" fill="#3cc8f0"/>
<rect x="288" y="101" width="8" height="1" fill="#3cc8f0"/>
<rect x="304" y="101" width="20" height="1" fill="#3cc8f0"/>
<rect x="332" y="101" width="28" height="1" fill="#3cc8f0"/>
<rect x="256" y="102" width="8" height="1" fill="#3cc8f0"/>
<rect x="268" y="102" width="8" height="1" fill="#3cc8f0"/>
<rect x="288" y="102" width="8" height="1" fill="#3cc8f0"/>
<rect x="304" y="102" width="20" height="1" fill="#3cc8f0"/>
<rect x="332" y="102" width="28" height="1" fill="#3cc8f0"/>
<rect x="256" y="103" width="8" height="1" fill="#3cc8f0"/>
<rect x="268" y="103" width="8" height="1" fill="#3cc8f0"/>
<rect x="288" y="103" width="8" height="1" fill="#3cc8f0"/>
<rect x="304" y="103" width="20" height="1" fill="#3cc8f0"/>
<rect x="332" y="103" width="28" height="1" fill="#3cc8f0"/>
<rect x="236" y="104" width="8" height="1" fill="#3cc8f0"/>
<rect x="256" y="104" width="8" height="1" fill="#3cc8f0"/>
<rect x="268" y="104" width="8" height="1" fill="#3cc8f0"/>
<rect x="288" y="104" width="8" height="1" fill="#3cc8f0"/>
<rect x="308" y="104" width="12" height="1" fill="#3cc8f0"/>
<rect x="332" y="104" width="8" height="1" fill="#3cc8f0"/>
<rect x="352" y="104" width="8" height="1" fill="#3cc8f0"/>
<rect x="236" y="105" width="8" height="1" fill="#3cc8f0"/>
<rect x="256" y="105" width="8" height="1" fill="#3cc8f0"/>
<rect x="268" y="105" width="8" height="1" fill="#3cc8f0"/>
<rect x="288" y="105" width="8" height="1" fill="#3cc8f0"/>
<rect x="308" y="105" width="12" height="1" fill="#3cc8f0"/>
<rect x="332" y="105" width="8" height="1" fill="#3cc8f0"/>
<rect x="352" y="105" width="8" height="1" fill="#3cc8f0"/>
<rect x="236" y="106" width="8" height="1" fill="#3cc8f0"/>
<rect x="256" y="106" width="8" height="1" fill="#3cc8f0"/>
<rect x="268" y="106" width="8" height="1" fill="#3cc8f0"/>
<rect x="288" y="106" width="8" height="1" fill="#3cc8f0"/>
<rect x="308" y="106" width="12" height="1" fill="#3cc8f0"/>
<rect x="332" y="106" width="8" height="1" fill="#3cc8f0"/>
<rect x="352" y="106" width="8" height="1" fill="#3cc8f0"/>
<rect x="236" y="107" width="8" height="1" fill="#3cc8f0"/>
<rect x="256" y="107" width="8" height="1" fill="#3cc8f0"/>
<rect x="268" y="107" width="8" height="1" fill="#3cc8f0"/>
<rect x="288" y="107" width="8" height="1" fill="#3cc8f0"/>
<rect x="308" y="107" width="12" height="1" fill="#3cc8f0"/>
<rect x="332" y="107" width="8" height="1" fill="#3cc8f0"/>
<rect x="352" y="107" width="8" height="1" fill="#3cc8f0"/>
<rect x="240" y="108" width="20" height="1" fill="#3cc8f0"/>
<rect x="272" y="108" width="20" height="1" fill="#3cc8f0"/>
<rect x="312" y="108" width="4" height="1" fill="#3cc8f0"/>
<rect x="332" y="108" width="8" height="1" fill="#3cc8f0"/>
<rect x="352" y="108" width="8" height="1" fill="#3cc8f0"/>
<rect x="240" y="109" width="20" height="1" fill="#3cc8f0"/>
<rect x="272" y="109" width="20" height="1" fill="#3cc8f0"/>
<rect x="312" y="109" width="4" height="1" fill="#3cc8f0"/>
<rect x="332" y="109" width="8" height="1" fill="#3cc8f0"/>
<rect x="352" y="109" width="8" height="1" fill="#3cc8f0"/>
<rect x="240" y="110" width="20" height="1" fill="#3cc8f0"/>
<rect x="272" y="110" width="20" height="1" fill="#3cc8f0"/>
<rect x="312" y="110" width="4" height="1" fill="#3cc8f0"/>
<rect x="332" y="110" width="8" height="1" fill="#3cc8f0"/>
<rect x="352" y="110" width="8" height="1" fill="#3cc8f0"/>
<rect x="240" y="111" width="20" height="1" fill="#3cc8f0"/>
<rect x="272" y="111" width="20" height="1" fill="#3cc8f0"/>
<rect x="312" y="111" width="4" height="1" fill="#3cc8f0"/>
<rect x="332" y="111" width="8" height="1" fill="#3cc8f0"/>
<rect x="352" y="111" width="8" height="1" fill="#3cc8f0"/>
  </g>
</svg>